<svg width="28" height="28" viewBox="0 0 28 28" fill="none" xmlns="http://www.w3.org/2000/svg">
<path fill-rule="evenodd" clip-rule="evenodd" d="M14.0002 25.6668C7.55684 25.6668 2.3335 20.4435 2.3335 14.0002C2.3335 7.55684 7.55684 2.3335 14.0002 2.3335C20.4435 2.3335 25.6668 7.55684 25.6668 14.0002C25.6668 20.4435 20.4435 25.6668 14.0002 25.6668ZM14.0002 4.66683C8.84551 4.66683 4.66683 8.84551 4.66683 14.0002C4.66683 19.1548 8.84551 23.3335 14.0002 23.3335C19.1548 23.3335 23.3335 19.1548 23.3335 14.0002C23.3335 8.84551 19.1548 4.66683 14.0002 4.66683ZM18.3251 9.67521C18.7807 10.1308 18.7807 10.8695 18.3251 11.3251L15.6501 14.0002L18.3251 16.6752C18.7807 17.1308 18.7807 17.8695 18.3251 18.3251C17.8695 18.7807 17.1308 18.7807 16.6752 18.3251L14.0002 15.6501L11.3251 18.3251C10.8695 18.7807 10.1308 18.7807 9.67521 18.3251C9.21959 17.8695 9.21959 17.1308 9.67521 16.6752L12.3502 14.0002L9.67521 11.3251C9.21959 10.8695 9.21959 10.1308 9.67521 9.67521C10.1308 9.21959 10.8695 9.21959 11.3251 9.67521L14.0002 12.3502L16.6752 9.67521C17.1308 9.21959 17.8695 9.21959 18.3251 9.67521Z" fill="white"/>
</svg>
