<svg width="28" height="28" viewBox="0 0 28 28" fill="none" xmlns="http://www.w3.org/2000/svg">
<path fill-rule="evenodd" clip-rule="evenodd" d="M2.3335 14.0002C2.3335 20.4435 7.55684 25.6668 14.0002 25.6668C20.4435 25.6668 25.6668 20.4435 25.6668 14.0002C25.6668 7.55684 20.4435 2.3335 14.0002 2.3335C7.55684 2.3335 2.3335 7.55684 2.3335 14.0002ZM4.66683 14.0002C4.66683 8.84551 8.84551 4.66683 14.0002 4.66683C19.1548 4.66683 23.3335 8.84551 23.3335 14.0002C23.3335 19.1548 19.1548 23.3335 14.0002 23.3335C8.84551 23.3335 4.66683 19.1548 4.66683 14.0002Z" fill="white"/>
<path fill-rule="evenodd" clip-rule="evenodd" d="M11.3251 13.1752C10.8695 12.7196 10.1308 12.7196 9.6752 13.1752C9.21959 13.6308 9.21959 14.3695 9.6752 14.8251L12.0085 17.1585C12.4641 17.6141 13.2028 17.6141 13.6585 17.1585L18.3251 12.4918C18.7807 12.0362 18.7807 11.2975 18.3251 10.8419C17.8695 10.3863 17.1308 10.3863 16.6752 10.8419L12.8335 14.6836L11.3251 13.1752Z" fill="white"/>
</svg>
