<svg width="28" height="28" viewBox="0 0 28 28" fill="none" xmlns="http://www.w3.org/2000/svg">
<path fill-rule="evenodd" clip-rule="evenodd" d="M2.3335 14.0002C2.3335 20.4435 7.55684 25.6668 14.0002 25.6668C20.4435 25.6668 25.6668 20.4435 25.6668 14.0002C25.6668 7.55684 20.4435 2.3335 14.0002 2.3335C7.55684 2.3335 2.3335 7.55684 2.3335 14.0002ZM4.66683 14.0002C4.66683 8.84551 8.84551 4.66683 14.0002 4.66683C19.1548 4.66683 23.3335 8.84551 23.3335 14.0002C23.3335 19.1548 19.1548 23.3335 14.0002 23.3335C8.84551 23.3335 4.66683 19.1548 4.66683 14.0002ZM14 6.7085C13.2042 6.7085 12.5682 7.37049 12.6 8.16566L12.8626 14.7302C12.887 15.3407 13.389 15.8231 14 15.8231C14.611 15.8231 15.1131 15.3407 15.1375 14.7302L15.4001 8.16566C15.4319 7.37049 14.7958 6.7085 14 6.7085ZM12.3231 19.2866C12.3231 18.3805 13.0576 17.646 13.9637 17.646C14.8698 17.646 15.6043 18.3805 15.6043 19.2866C15.6043 20.1927 14.8698 20.9272 13.9637 20.9272C13.0576 20.9272 12.3231 20.1927 12.3231 19.2866Z" fill="white"/>
</svg>
